<?xml version="1.0" encoding="UTF-8"?>
<svg id="Layer_2" data-name="Layer 2" xmlns="http://www.w3.org/2000/svg" viewBox="0 0 980.33 398.62">
  <g id="Layer_1-2" data-name="Layer 1">
    <g>
      <path d="M509.7,310.39h-32.47c-23.55-39.9-47.18-79.96-70.88-120.1h-43.76v119.99h-26.51V51.69c1.11-.79,2.37-.44,3.55-.44,25.09-.02,50.19-.09,75.28,.01,16.21,.07,32.16,1.8,47.33,8.12,24.79,10.33,37.37,29.02,38.86,55.67,.93,16.65-2.4,31.99-12.36,45.61-10.79,14.76-25.88,22.2-43.41,25.49-3.24,.61-6.51,1.01-10.15,1.57,24.8,40.83,49.51,81.52,74.52,122.68ZM362.67,75.97v89.74c1.41,0,2.61,0,3.81,0,15.03,0,30.07-.07,45.1,.03,8.34,.06,16.52-.95,24.61-2.85,21.46-5.04,33.29-16.67,35.9-36.34,2.16-16.31-3.44-33.59-21.09-42.79-7.47-3.89-15.44-5.97-23.67-6.94-21.25-2.51-42.61-.82-63.91-1.18-.19,0-.38,.17-.74,.33Z" fill="#254c5a"/>
      <path d="M89.57,363.81c6.08-6.45,11.9-12.62,17.69-18.75,1.43,.21,1.82,1.37,2.5,2.17,16.03,18.88,36.59,28.16,61.2,28.84,8.87,.25,17.62-.48,26.22-2.91,22.51-6.36,35.68-21.22,40.49-43.89,1.96-9.26,2.15-18.61,2.09-28-.05-7.51-.01-15.02-.01-22.48-.85-.42-1.04,.25-1.3,.65-11.74,17.54-28.63,26.93-49.09,29.88-29.44,4.26-55.8-3.01-77.62-23.58-18.16-17.12-26.56-38.8-26.02-63.61,.71-32.4,14.09-58.31,42.02-75.45,30.19-18.54,76.46-16.9,104.11,12.24,2.57,2.71,4.92,5.62,7.74,8.86v-28.46h24.12c.7,.81,.36,1.85,.36,2.8,.02,56.34,.17,112.67-.09,169-.07,15.06-2.26,29.97-9.09,43.69-10.54,21.2-27.9,34.36-50.56,39.82-25.87,6.23-51.73,5.44-76.82-4.35-14.61-5.7-27.04-14.73-37.93-26.48ZM240.4,223.8c.7-41.01-29.05-66.5-63.62-67.03-34.25-.53-64.73,28.93-64.64,65.81,.09,36.11,28.79,65.79,63.6,65.82,31.83,.02,65.62-23.39,64.66-64.59Z" fill="#254c5a"/>
      <path d="M974.17,85.82c-7.81,5.82-15.32,11.43-23.08,17.22-3.56-4.42-6.95-8.86-11.27-12.46-18.44-15.34-39.48-23.06-63.59-21.28-49.46,3.67-87.03,37.98-95.99,87.49-5.29,29.21-1.98,57.31,12.7,83.3,17.75,31.44,45.11,48.75,81.11,52.22,13.54,1.3,26.92,.17,39.97-3.72,17.71-5.28,31.55-15.93,42.1-30.98,.81-1.15,1.63-2.29,2.6-3.64,7.25,5.16,14.33,10.2,21.59,15.37-4.52,6.98-9.79,13.01-15.82,18.37-20.52,18.24-44.83,27.31-71.97,29.03-30.56,1.94-59.04-4.97-84.63-21.96-30.95-20.55-49.29-49.66-56.08-85.99-5.78-30.9-2.75-61.04,10.83-89.48,18.06-37.84,48.29-61.25,88.93-70.9,29.45-6.99,58.36-4.58,86.09,7.99,14.53,6.59,26.58,16.45,36.51,29.42Z" fill="#254c5a"/>
      <path d="M554.95,51.71c1.24-.77,2.49-.46,3.68-.46,23.55-.02,47.09-.09,70.64,.01,14.4,.06,28.65,1.4,42.39,6.18,27.31,9.51,42.37,28.35,43.91,57.47,.74,13.86-.78,27.36-7.41,39.83-8.9,16.73-23.86,25.49-41.33,30.73-11.18,3.35-22.71,4.59-34.34,4.65-15.7,.08-31.4,.02-47.09,.02h-3.95v120.13h-26.49V51.71Zm26.62,24.27v89.6c.96,.06,1.72,.14,2.47,.14,15.25,0,30.5,.15,45.74-.04,10.66-.14,21.03-2.15,31.03-6.01,33.84-13.07,31-54.56,13.9-69.48-9.38-8.19-20.56-11.8-32.54-13.32-19.91-2.52-39.93-.9-59.9-1.21-.19,0-.38,.17-.7,.33Z" fill="#254c5a"/>
      <path d="M93.8,26.96h10.5c-.99,2.59-3.76,3.51-4.67,5.84-.93,.77-1.93,1.46-2.77,2.32-5.88,5.96-11.68,11.99-17.6,17.91-3.3,3.3-6.77,6.43-10.75,10.19h61.96c6.51,.39,13.02,.03,19.53-.02,21.55-.16,43.1-.17,64.65-.24,.99,0,1.98-.09,2.98-.14,10.26,0,20.52,0,30.79,0,.16-.32,.32-.63,.48-.95-1.27-1.04-2.65-1.98-3.8-3.15-3.84-3.92-8.17-7.36-11.47-11.81,0,0,0,0,0,0,5.83,0,11.67,0,16.04,0,7.72,7.6,14.58,14.36,21.38,21.06-6.51,6.51-13.2,13.2-20.04,20.05-5.47,.71-11.23-.41-16.91,.62-.19-.07-.32-.2-.41-.37,4.8-5.02,9.6-10.05,14.77-15.47h-30.23c-5.05-.7-10.11-.12-15.17-.1-24.26,.08-48.51,.14-72.77,.21-20.24,0-40.48,0-60.72,0-.09,.29-.19,.58-.28,.88,10.15,9.91,20.31,19.82,30.46,29.73,1.14,2.24,3.66,3.28,5.28,6.04-3.97,0-7.5,0-11.02,0-8.05,0-16.09,0-23.92,0-13.79-13.95-27.33-27.65-41.28-41.77,13.79-13.22,27.79-26.64,42.58-40.82h22.42Z" fill="#254c5a"/>
      <path d="M93.8,26.96h-22.42c-14.8,14.18-28.79,27.6-42.58,40.82,13.95,14.12,27.49,27.82,41.28,41.77,7.84,0,15.88,0,23.92,0-9,8.63-18,17.26-27.02,25.91C45.13,113.32,22.76,90.63,0,67.54,21.66,45.64,44.11,22.94,66.8,0c9.21,9.2,18.1,18.08,27,26.96Z" fill="#4ec1c0"/>
      <path d="M234.09,88.64c5.67-1.02,11.43,.09,16.91-.62,6.84-6.84,13.53-13.54,20.04-20.05-6.8-6.7-13.66-13.46-21.38-21.06-4.38,0-10.21,0-16.04,0,5.95-6.78,12.67-12.79,18.92-19.21,13.29,13.45,26.38,26.7,39.43,39.91-12.9,12.67-26.24,25.77-39.79,39.07-5.63-5.61-11.86-11.83-18.09-18.04Z" fill="#4ec1c0"/>
      <path d="M99.74,103.51c-10.15-9.91-20.31-19.82-30.46-29.73,.09-.29,.19-.58,.28-.88,20.24,0,40.48,0,60.72,0-9.99,10.39-20.07,20.69-30.54,30.61Z" fill="#4ec1c0"/>
      <path d="M130.46,63.22h-61.96c3.98-3.76,7.45-6.89,10.75-10.19,5.92-5.92,11.72-11.95,17.6-17.91,.84-.85,1.84-1.55,2.77-2.32,10.28,10.14,20.56,20.28,30.84,30.42Z" fill="#4ec1c0"/>
      <path d="M233.62,46.91c3.29,4.45,7.63,7.89,11.47,11.81,1.14,1.17,2.52,2.1,3.8,3.15-.16,.32-.32,.63-.48,.95-10.26,0-20.52,0-30.79,0,5.14-5.5,10.39-10.88,16-15.9Z" fill="#4ec1c0"/>
      <path d="M218.22,72.79h30.23c-5.18,5.42-9.97,10.45-14.77,15.47-5.31-5-10.52-10.1-15.46-15.47Z" fill="#4ec1c0"/>
    </g>
  </g>
</svg>