<?xml version="1.0" encoding="UTF-8"?>
<svg id="Layer_2" data-name="Layer 2" xmlns="http://www.w3.org/2000/svg" viewBox="0 0 934.71 845.06">
  <g id="Layer_1-2" data-name="Layer 1">
    <g>
      <path d="M665.04,541.73c-5.42,7.13-13.47,4.34-18.65,2.08-5.02-2.18-9.63-2.37-14.01-1.77-5.45,.74-8.28-4.24-13.58-3.84-19.49,1.47-38.6-5.64-58.21-3.13-28.03-6.51-56.47-2.53-84.72-3.19-28.13-.66-56.29,.04-84.43-.2-22.25-.19-44.16,5.74-66.51,3.39-9.65,4.5-19.95,3.54-30.08,3.19-4.57-.15-7.15,5.1-11.87,3.47,.03-2.7-.11-4.96-2.21-7.44-12.49-14.75-20.13-32.42-27.4-49.99-4.88-11.81-9.05-24.68-9.69-37.27-.69-13.49-5.95-26.41-4-40.11,.68-4.76,.11-9.7,.11-16-11.25,2.6-20.91-1.78-30.79-2.11-8.7-.29-16.83-2.7-24.66-4.9-23.62-6.65-45.93-16.97-67.47-28.85,.6-7.63,11.61-48.78,15.13-56.87,5.11-11.73,9.6-23.76,15.32-35.17,9.31-18.57,20.29-36.18,32.61-52.95,13.46-18.32,27.57-36.18,44.64-51.16,30.3-26.59,63.46-48.95,100.76-64.73,18.94-8.01,38.09-15.16,58.34-19.23,13.38-2.69,26.88-4.79,40.2-7.3,13.02-2.45,25.7-1.75,38.51-2.6-1.55,12.23,6.38,22.04,7.77,33.33h5.52c-6.19,13.77-15.41,26.38-16.83,43.33h16.83v38.52c13.81,3.94,26.86,4.58,39.63,7.86,32.53,8.35,48.76,15.39,73.17,31.67,20.24,13.5,37.73,29.48,52.63,48.98,8.99,11.76,16.67,24.04,22.85,37.2,6.09,12.96,14.93,25.16,14.37,40.58,8.58,14.09,6.35,30.57,9.54,45.83,3.81,18.17-2.98,36.48-3.51,54.86-.01,.42-1.77,.79-2.71,1.18-3.15-.44-6.54,1.03-9.87-1.41-.55-6.5-.62-13.15-2.9-19.98-2.33-6.98-1.42-15.5-.27-23.09,1.21-8-4.78-14.15-3.67-21.97,2.71-19.07-4.43-37.46-3.22-56.55h-30.32c-11.74,27.68-23.59,55.65-36.29,85.59-12.66-30.55-23.82-59-36.28-85.24h-29.8c-.78,9.65,.22,18.58-3.07,27.63-2.32,6.36-1.38,14.42-.2,21.43,1.34,8.02-3.85,14.4-3.63,21.97,.26,8.87-.1,17.76,.11,26.63,.2,8.61-6.19,15.88-3.28,24.55-4.06,.39-6.68,.65-9.3,.9v22.37h31.12c4.74-3.49,5.51-8.49,7.99-12.45,0-3.89,.19-7.78-.04-11.65-1.35-22.89,6.27-45.19,5.05-68.41,9.8,22.16,19.6,44.32,29.1,65.8h24.87c9.84-22.32,19.43-44.09,29.24-66.35,.69,1.66,1.49,2.65,1.41,3.55-2.16,23.56,4.77,46.63,3.69,70.21-.32,6.97,1.71,14.69,8.03,19.8,8.29,0,16.59,0,24.88,0,.33,16.21-8.45,29.37-15.14,43-2.41,4.9-6.27,9.31-8.14,14.69,2.86,5.88,9.35,7.72,13.32,12.3ZM306.24,178.4h-8.36c-2.24,4.46-4.5,8.98-6.7,13.36-6.63-.53-13.81,2.28-17.59-4.4v-14.56c4.77-2.22,8.87-4.12,13.16-6.12-1.18-2.94,.82-5.99-2.03-8.2h-9.51c-5.16,5.11-10.25,10.13-15.68,15.5,1.69,6.15-2.93,13.73,4.23,20.51-13.16,.11-23.84,11.52-38.23,5.39,3.35-7.2,8.3-10.79,14.69-13.46-1.61-3.45,1.13-7.51-.15-9.08-5.75-5.03-6.68,1.33-9.9,1.06-3.36-.28-4.51,2.73-6.4,4.49-11.34,10.5-12.08,14.36-6.36,27.41,13.6,10.22,25.35,1.45,37.1-2.27,2.38,3,5.97,4.45,5.32,8.01-3.93,6.75-11.66,6.94-17.22,11.57,2.06,3.23-1.5,7.48,2.1,10.71,10.26-1.84,18.95-6.3,25.63-16.32v-20.08c18.11,5.41,19.04,5.09,35.91-11.9,0-3.88,0-7.75-12.99-43.61-.09,1.33-.75,3.14-.22,4.46,4.87,12.06,13.68,22.01,17.45,34.01,6.44,1.17,10.29-.85,12.83-7.27-4.38-3.7-4.33-11.08-11.15-14.33,2.44-4.85-1.48-10.07,2.03-14.5,3.49-4.39,2-8.9,1.17-13.68-7.68-.47-8.23,5.82-10.61,9.95-3.5,0-6.79-.04-10.08,.05-.4,.01-.79,.7,11.56,33.28Zm-23.26,205.31c5.99-19.56,16.9-29.51,34.31-35.19h22.74c6.1,3.15,11.1,5.74,14.91,7.7,2.75,5.61,5.03,10.27,4.99,14.99h22.42v-24.63c-7.22-12.12-8.45-11.78-18.97-18.54-6.21-3.99-13.11-1.83-19.43-5.72-4.83-2.97-12.93-.5-19.57-.61-22.78-.36-41.32,9.09-55.48,26.22-8.2,9.93-15.41,21.44-15.6,35.01-.17,12.33-.87,24.56,2.7,37.07,4.7,16.46,18.83,36.75,35.33,45.08,11.91,6.01,30.19,9.61,40.71,10.32,5.51,.37,8.77-3.22,13.53-4.06,15.62-2.75,30.41-8.13,40.41-21.84-1.5-7.5-3.77-10.93-14-21.12-.87,.56-1.83,1.03-2.61,1.71-1.25,1.1-2.22,2.56-3.57,3.48-15.88,10.88-31.97,19.47-52.36,11.65-16.35-6.27-30.37-24.66-30.45-42.53-.03-7.22,0-14.44,0-19Zm212.33-40.52c-24.01-32.67-76.16-27.49-92.73,7.22,0,5.38,.29,11.45-.07,17.48-.48,8.03,2.19,14.55,7.9,20.04,5.74,5.53,11.52,10.46,19.02,14.13,13.93,6.8,29.59,11.31,39.04,24.26v15.02c-3.93,2.34-7.51,4.47-10.73,6.39-18.17,4.52-30.27-8.09-43.46-15.31-7.66,4.18-8.59,13.04-14.73,17.37,12.56,17.03,30.31,24.78,50.59,24.95,19.18,.16,34.47-9.29,44.63-24.65,3.99-10.4,5.29-20.36,3.72-29.97-1.17-1.81-2.33-3.03-2.82-4.48-4-11.73-12.1-19.16-23.31-24.04-8.91-3.88-17.04-9.71-26.14-12.95-8.66-3.08-14.12-8.14-17.07-16.6,1.46-3.21,2.95-6.47,4.42-9.69,12.13-6,23.99-6.31,35.33,1.04,.84,4.23-1.47,8.3,1.21,11.11h25.22v-21.34Zm-89.2-234.07c-11.16-11.05-21.72,3.74-32.33-.92-2.01,2.9-4.39,4.76-4.23,6.35,1.23,11.96,6.49,23.19,6.5,35.42,0,.4,.69,.8,1.21,1.37,3.99,.2,8.23,1.65,12.68-1.65-4.91-9.93-4.2-20.43-3.8-30.88h13.4c-1.98,10.68,3.27,19.73,3.94,29.37,6.17,1.14,10.25-.53,12.51-6.22-5.85-8.06-2.54-17.26-3.5-25.44,3.04-2.27,4.11-5.44,9.09-4.51,.84,1.05,2.5,3.12,4.73,5.9-2.71,8.16,2.36,15.64,4.14,24.23,2.82-1.27,5.72,.84,7.93-1.28,3.46-12.17-2.13-23.26-3.04-32.63-3.35-4.38-5.67-7.42-7.52-9.84-3.28,0-5.65-.52-7.66,.11-3.83,1.2-7.45,3.06-10.9,4.54-.13,2.19,.38,3.96-3.16,6.07Zm-56.06,9.37c-3.03,12.38,6.69,20.88,6.03,31.56-10.09,7.9-12.6,7.15-16.7-4.02-2.26-6.14-5.44-11.94-8.16-17.78-3.12,.66-6.11-1.09-8.29,1.73-1.24,13.26,6.33,23.69,10.32,33,6.25,5.09,11.82,6.31,19.96,4.76,1.89-2.24,5.06-5.99,7.64-9.04,4.57-1.08,8.65,1.33,12.08-2.13-1.83-14.04-9.18-25.89-15.25-38.08h-7.63Z" fill="#fecc66"/>
      <path d="M857.85,643.52c-.4,4.98-4.34,7.17-3.65,11.6,.54,3.46-.63,7.06-1.75,10.77-4.96,16.49-12.37,31.74-21.49,46.06-6.62,10.39-15.27,19.32-28.26,23.64-11.87-5.38-24.51-9.97-36.61-15.15-12.02-5.14-24.34-8.27-36.61-11.87-18.91-5.55-38.09-10.06-57.42-14.15-13.01-2.75-26.55-3.87-39.38-8.86-7.47-2.91-17.08,.89-25.01-3.83-13.63,1.97-26.77-2.73-40.07-4.07-16.77-1.69-33.92,.06-50.05-3.22-20.24-4.11-40.17-1.81-60.2-2.54-20.46-.75-41.33-2.58-61.34,.52-19.67,3.05-39.27,.1-58.44,3.14-13.49,2.14-27.03,1.04-40.15,3.26-14.58,2.46-29.32,3.79-43.75,6.59-14.73,2.86-29.46,6.26-44.03,9.92-14.37,3.61-28.47,8.69-42.22,14.3-10.88,4.43-21.05,10.63-30.52,15.52-15.37-.84-20.04-13.66-26.15-22.37-10.53-15.02-22.21-30.26-24.2-49.78-6.32-7.3-1.25-15.72-3.19-23.51,15.23-8.68,26.72-21.04,42.03-28.95,13.29-6.87,26.97-12.7,40.63-18.42,8.86-3.71,18.51-6.04,27.78-9.14,9.29-3.1,19.6-2.59,28.29-7.91,16.11,.76,30.89-7.93,47.07-6.66,6.48,.51,11.6-4.67,18.6-3.68,5.43,.77,12.12,2.95,16.93-2.92,.45-.55,2.13-.15,3.23-.06,20.72,1.6,41.01-5.91,61.72-3.24,14.83,1.91,28.73-4.55,43.49-3.63,14.34,.89,28.77,.19,43.17,.19s29.9,.21,44.84-.05c23.98-.41,47.64,5.78,71.7,3.38,10.8,4.79,22.45,1.89,33.43,3.74,8.43,1.42,16.79,2.28,25.22,3.29,7.83,.94,16.06,1.53,23.45,3.47,13.21,3.46,26.78,4.19,39.95,7.55,12.56,3.21,25.83,5.22,37.74,9.33,18.3,6.32,36.97,11.93,54.87,19.87,18.62,8.26,34.94,19.99,52.25,30.17,6.93,4.08,11.92,11.48,18.1,17.68Zm-114.09,37.41c21.7-10.97,29.44-30.27,27.73-50.46-4.82-14.69-11.36-22.53-21.09-28.99-5.28-3.5-10.16-2.22-15.03-3.91-15.62-5.45-21.62-5.87-32.57-4.65-5.08,6.14,2.59,9.49,2.42,15.15-.29,10.2-3.39,19.77-4.92,29.64-1.85,11.92-6.47,23.4-5.24,35.82,1.53,1.53,3.09,3.1,4.48,4.49,14.62,.55,28.62,6.44,44.2,2.91Zm-379.26-115.74c-15.13-1.49-29.37,5.84-44.65,2.96v9.22c3.93,1.1,7.39,2.42,10.12,6.96-3.73,21.85,3.82,44.06,2.98,68.29,4.95-2.3,9.39,1.38,13.71-3.16v-30.75h11.12c9.34,7.03,11.58,17.84,16.91,26.71,3.23,3.8,8.15,4.28,12.06,6.44,5.09-2.79,7.11-6.69,5.5-12.1-1.12-1.92-3.82-.64-4.34-1.45-5.22-8.23-10.12-16.67-15.11-25.04q16.11-16.3,5.7-40.16c-4.74-3.67-10.46-3.74-14.02-7.91Zm-59.93,69.87c-3.41,2.32-.33,6.32-3.05,10-3.51,0-7.97,.73-12.08-.19-4.83-1.08-7.14,5.07-13.1,2.66,3.31-8.5-7.04-15.87-2.04-25.84,9.82,.33,19.83,.44,28.62-5.46,.75-4.14-3.2-5.3-5.39-8.4h-28.04c.74-7.99-.77-15.51,.89-22.14h21.99c.55,2.13,.94,3.63,1.33,5.13,5.55,2.96,9.19,0,12.49-4.08-.02-5.33,1.46-11.16-4.41-14.46-17.55-3.56-33.98,5.64-50.21,2.75-5.01,4.49-7.76,8.27-3.43,13.34,2.66,.61,5.6-1.15,8.46,1.91-3.03,10.91,3.76,21.5,2.99,32.72-.82,11.99,6.2,22.78,3.46,33.67,3.31,3.47,5.52,6.37,9.32,5.02,13.99-4.98,29.01-4,43-7.6v-19.03c-4.16,0-7.47,0-10.79,0Zm375.91-49.51c-7.96-2.54-15.76,1.37-24.1-3.18-6.2-3.38-15.71,.16-23.22-3.88-1.2-.64-3.29-.51-4.24,1.09v11.19c2.35,.83,4.28,1.5,7.9,2.77-7.08,10.99-6.35,23.58-7.55,35.3-1.22,11.86-8.22,23.78-3.27,35,8.58,2.44,16.01,5.7,24.28,4.67,7.92-.98,15.03,6.2,24.42,2.25,5.61-3.32,3.32-9.9,3.57-15.71,.04-.93-.72-1.89-1.12-2.87-3.02-.06-6.38-2.15-8.78,1.46-.08,1.63,.37,3.39,1.06,2.97-12.43,4.86-20.68-3.79-32.82-.69,5.01-8.82,5.83-16,4.95-24.31,10.38,.6,19.91-1.81,30.91,5.81-1.53-6.93,.47-11.03-1.9-15.43-8.75,1.52-15.86-5.81-24.21-3.42-3.88-9.42,3.04-15.88,2.78-23.5h14.27c8.42,1.67,10.37,13.85,21.04,13.26v-18.8c-1.15-1.15-2.71-2.72-3.97-3.98Zm-473.74,77.48c-3.9-5.08-8.44-4.46-12.26-5.2-5.72-5.3-11.84-10.34-13.98-17.69-.92-3.19-3.33-5.19-3.96-8.42-1.32-6.82,4.64-11.96,3.67-18.57,5.77-5.54,10.78-12.09,18.39-14.48h16.36c3.9,2.39,4.39,6.4,6.16,9.26h11.67v-9.68c-4.57-5.22-8.18-9.34-11.3-12.9h-26.61c-25.3,14.18-32.16,24.32-31.59,45.14,.18,6.54,4.14,11.74,5.1,17.92,.8,5.2,5.49,7.73,8.09,11.66,7.33,11.06,20.16,10.3,29.29,14.49,16.29-3.73,31.63-7.66,40.88-22.54-2.02-6.53-6.36-8.17-13.73-5.9-3.34,3.62-7.44,8.08-11.14,12.09-5.35,.67-10.62-1.29-15.04,4.84Zm335.72-80.72h19.14c.35,3.19,.64,5.81,.97,8.77,4.28,.95,8.38,1.2,12.38-.24v-20.11c-18.02,4.98-34.92-6.51-51.7-1.51-4.71,8.45,4.58,10.58,5.82,16.14,1.5,4.45-4.01,6.5-3.53,10.36,2.36,19.14-4.63,37.73-3.28,56.79,.06,.89,1.1,1.7,1.69,2.55,3.69-.51,7.62,1.2,11.75-1.58-2.81-11.7,5.22-22.37,2.61-35.8,11.05,1.48,20.57,7.33,30.89,2.38-1.6-3.68,.98-7.71-2.09-11.75h-23.5c-1.99-2.11-3.47-3.69-5.63-5.99,6.2-5.3,3.39-12.76,4.49-20.01Zm-77.9-16.74h-67.79v19.49h8.62c-.46-4.53,2.29-7.61,5.87-9.92,5.56-.2,11.28-1.14,15.1,6.68v66.07c4.68,.45,8.9,1.64,13.28-1.29v-71.2h11.33c3.75,2.26,4.33,6.2,6.04,9.25h11.62v-15l-4.06-4.08Zm32.18,71.86c-4.57-8.21,3.31-13.6,2.41-20.94-.93-7.63-.21-15.46-.21-23.2,0-3.87-.08-7.74,.05-11.61,.03-.95,.74-1.88,1.17-2.9,2.57-.29,5.18-.59,7.66-.87,2.97-5.66,.4-9.44-3.37-12.36h-24.9c-.57,4.66-1.61,8.86,.77,12.72,1.79,.38,3.62-.55,5.35,2.22-1.4,18.7,3.62,38.85-4.96,57.88-1.79,.17-3.59-.5-4.66,1.35v11.34h29.22c.17-3.3,1.09-5.98-.46-8.48-3.31-.58-6.04-2.02-8.08-5.15Zm82.1,19.51c9.16,7.08,19.33,4.25,28.71,4.83,3.41-7.92-1.77-11.08-4.98-14.35-3.84-19.13,5.4-36.71,2.81-52.84,2.7-6.17,7.91-4.83,9.72-8.08,1.62-5.41-1.45-8.51-4.24-10.84h-21.24c-2.4,2.91-6.27,4.52-3.48,8.59,1.97,.69,3.9,1.36,5.26,1.84,3.6,20.18-4.83,38.97-2.86,56.11-2.72,6.2-7.92,4.86-9.69,8.04v6.71Z" fill="#feb906"/>
      <path d="M475.67,98.4h-5.52c-1.38-11.3-9.32-21.1-7.77-33.33h11.62c8.3,0,17.39-2.14,24.69,.57,8.14,3.02,17.05-.15,23.41,3.35,7.44,4.09,16.42-.6,22.46,6.08,12.57-1.24,23.16,5.32,34.58,8.7,11.36,3.36,22.06,8.1,32.89,12.85,32.03,14.05,53.35,30.09,75.71,45.9,19.05,13.47,34.56,30.61,49.69,47.69,14.11,15.93,27.12,33.36,36.86,52.75,4.86,9.66,10.38,18.99,15.16,28.68,10.96,22.21,17.34,46.11,25.09,69.51-1.66,10.39,5.66,19.79,3.32,30.26,6.73,24.27,3.26,49.07,2.98,73.56-.38,32.18-6.7,63.64-18.33,93.83-5.14,13.35-10.34,26.67-15.71,40.52-23.5-10.6-48.05-14.74-70.83-24.25-11.29,.63-21.48-4.07-32.18-6.3-5.04-1.05-9.38-1.7-12.59-5.87-1.73-2.24-4.12-.72-6.16-1.17-3.97-4.59-10.46-6.43-13.32-12.3,1.87-5.38,5.74-9.79,8.14-14.69,6.7-13.63,15.48-26.8,15.14-43,2-.38,4.28,.92,6.64-1.71v-21.63c.94-.39,2.7-.76,2.71-1.18,.52-18.37,7.31-36.69,3.51-54.86-3.2-15.26-.96-31.74-9.54-45.83,.57-15.41-8.28-27.62-14.37-40.58-6.18-13.15-13.86-25.43-22.85-37.2-14.91-19.5-32.39-35.47-52.63-48.98-24.41-16.28-40.64-23.33-73.17-31.67-12.78-3.28-25.82-3.92-39.63-7.86v-38.52c.6-4.26-1.15-8.73,.94-13.01h18.59c-.2,6.19,2.36,11.25,5.54,16.7,9.29-3.21,18.14,3.18,26.97,3,1.55-2.92,.37-5.55,3-6.45,3.57,2,4.55,5.69,5.79,9.25,4.43-1.22,6.43,6.3,12.41,2.41-2.45-19.34,4.82-37.65,9.93-56.93-1.82-1.55-3.61-3.75-5.92-4.81-1.77-.81-4.21-.16-6.99-.16-2.04,16.36-9.77,30.77-11.32,46.88-3.49-.8-6.44,.96-9.14-1.93,.03-15.84,9.24-31.09,6.21-47.2-2.65-2.21-3.89-5.22-8.43-4.15-7.11,16.44-7.02,35.39-12.8,53.71-6.25-19.64-9.05-39.19-16.55-57.27h-10.98c-2.6,5.17-7.49,9.61-7.26,16.61Zm172.76,93.33v18.42c8.1,7.7,14.12,16.15,23.66,18.12,3.12-.49,3.42-3.81,6.24-4.86v18.99c5.33,5.72,10.21,10.95,15.24,16.34,2.55-1.17,5.59,.98,7.52-1.42,2.89-9.08-3.62-11.33-8.85-13.66v-16.61c5.07,10.32,12.24,16.15,18.41,21.43,4.31-3.44,7.68-6.12,10.69-8.52v-14.43c-4.68-5.73-8.16-9.98-11.11-13.59h-20.48c-3.13,3.14-7.71,7.75-11.42,13.13-.41-3.14,.96-6.48-1.28-9.77-7.97,.88-12.31-3.98-15.26-9.71-.6-8.38,5.68-10.36,8.4-13.79,3.28,0,5.54-.7,6.43,.12,4.2,3.82,8.78,7.45,9.55,13.38,3.72-.67,6.7,.94,8.74-1.87v-10.49c-2.44-2.32-4.96-5.3-8.04-7.51-7.16-5.12-14.13-11.63-23.75-3.9-1.67,1.34-5.32,.19-8.06,.19-.59-6.45,6.08-11.66,1.47-21.06-1.26-4.09-8.09-6.62-13.65-8.43-5.75-1.87-8.57-11.64-17.39-6-3.11,11.98-16.76,19.38-17.3,34.03,3.04,1.28,3.96,5.58,8.17,4.79,5.52-8.14,9.59-17.41,17.37-23.28,8.16-.68,11.93,2.61,11.26,11.72-5.92,5.95-13.6,12.31-13.28,23.62,2.86,.91,3.55,5.51,7.98,4.57,2.83-3.28,2.91-9.17,8.72-9.96Zm-83.63-33.87c4.08-14.06,12.8-26.87,10-42.48-3.43-.19-6.1-1.12-8.58,.44-4.88,12.49-9.73,24.9-14.48,37.03,3.23,3.91,6.26,7.07,20.27-11.27v18.49c2.73,2.71,5.47,5.44,8.82,8.77,9.48-6.54,13.56,9.51,23.83,5.64,.21-13.26,14.44-23.01,10.17-38.14-10.72-10.24-24.41-14.75-29.49-9.65v7.11c5.49,1.93,11.79,2.56,16.6,6.72-.1,1.05-.21,2.12-.36,3.69-9.61-4.56-19.71-1.56-36.78,13.64Zm17.52-46.4c-.91-4,.79-6.89-1.6-9.36-3.99-.19-8.22-1.59-12.07,1.16,.62,2.73-1.08,5.62,1.41,8.2h12.26Z" fill="#feb906"/>
      <path d="M432.48,15.06c9.5,.32,15.24,6.82,21.38,13.14h10.47c8.32-10.6,21.74-16.21,30.95-28.21,12.32,11.73,23.49,22.49,31.63,35.48,18.22-2.39,28.93-18.63,46.87-20.75,5.05,14.78,17.65,25.19,22.71,40.08,16.38-2.42,29.73-15.79,47.5-12.71,5.08,12.98,10.14,25.87,15.15,38.66,16.21,4.64,31.85-3.72,47.69-2.28,7.63,14.52,5.18,31.22,12.27,46.08h42.85c4.49,2.23,.6,8.11,5.96,7.84v41.34c14.18,8,31.59,4.87,46.77,12.72-2.07,15.39-8.75,30.44-6.46,47.74,13.03,2.46,24.09,11.85,39.11,15.31,2.18,16.47-7.01,30.86-13.14,47.03,11.82,10.51,27.46,16.06,40.94,27.22-7.88,13.7-15.8,27.48-24.35,42.35,9.23,11.75,24.72,18.06,33.55,31.42,1.17,10.23-8.53,13.18-13.58,19.11-5.19,6.1-9.06,12.85-14.2,19.51,4.66,7.17,8.38,13.95,13.63,20,4.72,5.44,9.59,11.14,11.42,19.88-5.29,4.59-9.51,10.23-16.58,13.94-6.33,3.33-10.07,10.96-18.39,14.1,5.74,15.69,14.25,29.87,21.86,45.78-14.04,6.76-28.11,13.09-39.97,22.63-3.7,9.94,6.94,18.58,1.23,28.56-8.98-4.5-18.39-9.22-28.01-14.04-.85-3.45,.46-6.31,2.05-10.01,8.32-19.36,15.69-39.16,20.6-59.71,2.8-11.71,5.12-23.56,7.28-35.43,2.17-11.88,.6-24,3.32-35.23,2.64-10.84,1.49-21.47,3-32.04,1.29-9.05-3.45-16.7-3.68-25.3-.21-7.92,.82-15.68-2.68-23.83-2.72-6.34-2.4-14.56-3.22-21.79-1.69-14.8-6.4-28.84-11.19-42.21-10.76-30.04-25.1-58.51-42.7-85.6-19.83-30.53-44.73-56.13-71.26-79.95-21.98-19.74-47.83-34.72-74.67-47.81-17.59-8.58-35.33-17.1-54.1-21.6-18.7-4.48-36.9-12.59-56.78-11.46-12.02-7.48-26.03-.85-39.01-6.02-8.61-3.43-19.67-.65-29.64-.65,.36-6.13-3.86-10.17-6.5-15.02-3.33-6.13-10.07-10.38-10.11-18.32Z" fill="#feb906"/>
      <path d="M116.87,355.06c21.54,11.87,43.85,22.2,67.47,28.85,7.83,2.2,15.96,4.61,24.66,4.9,9.88,.33,19.54,4.71,30.79,2.11,0,6.29,.57,11.23-.11,16-1.95,13.7,3.31,26.62,4,40.11,.65,12.59,4.81,25.46,9.69,37.27,7.26,17.57,14.9,35.24,27.4,49.99,2.1,2.48,2.24,4.74,2.21,7.44-10.45-2.51-20,2.97-30.15,3.46-9.36,.46-18.34,4.69-27.42,5.5-16.87,1.5-32.24,8.36-48.65,11.32-8.4,1.51-16.25,6.06-24.42,9.03-1.96,.71-4.21,.62-5.83,.83-5.46-1.53-6.22-6.3-7.7-9.97-7.73-19.12-14.85-38.38-18.89-58.82-2.78-14.04-4.33-28.28-7.06-42.12-4.01-20.3-.8-40.36-2.86-60.35-.77-7.44,3.94-13.22,3.65-20.3-.26-6.34-1.24-12.88,3.06-18.72,1.06-1.44,.16-4.32,.16-6.54Z" fill="#feb906"/>
      <path d="M336.14,691.73c23.66-5.61,47.72-2.88,71.62-3.25,23.77-.37,47.55-.08,71.33-.08,10.51,0,21.09,.83,31.5-.18,19.72-1.92,38.75,5.34,58.36,3.5,5.97-.56,10.35,4.74,16.93,3.68,6.01-.97,12.28-.94,18.74,2.5,4.74,2.53,12.35-.96,17.9,.77,17.01,5.29,34.99,5.44,52.51,11.31-3.84,3.38-7.65,6.29-11.88,9.28-16.15,11.43-33.26,21.08-51.21,28.91-20.23,8.83-40.65,17.71-62.98,20.22-13.66,7.77-29.84,4.27-44.03,9.87-2.4,.94-5.48,.13-8.24,.13-17.14,0-34.3,.51-51.42-.11-31.58-1.15-62.37-7.27-92.02-18.12-6.83-2.5-15.14-2.01-20.41-8.43,4.47-.03,3.27-3.45,3.28-5.85,.08-18.05,.04-36.1,.04-54.15Z" fill="#fecc66"/>
      <path d="M432.48,15.06c.04,7.93,6.78,12.19,10.11,18.32,2.63,4.85,6.86,8.89,6.5,15.02-.04,4.58-3.63,3.57-5.92,3.24-14.74-2.14-28.72,4.96-43.37,3.43-23.23,8.16-47.85,11.32-70.69,21.43-13.55,6-27.21,11.98-40.2,18.9-19.8,10.54-38.37,23.2-55.88,37.59-13.1,10.77-25.59,22.06-36.92,34.49-17.42,19.13-33.51,39.16-46.61,61.92-7.72,13.41-16.01,26.85-22.03,40.82-8.9,20.65-18.37,41.57-20.7,64.57-.24,2.4-2.1,4.63-3.21,6.94-2-.4-4.29,.96-6.04-1.05-6.63-7.63-15.27-13.39-20.54-22.28,3.8-4.83,10.74-6.3,13.52-13.03-2.66-15.34-15.7-28.17-13.19-46.56,14.25,.23,23.71-13.38,38.27-14.11,5.21-8.71-2.58-16.35-2.07-24.68,.49-8.02-5.86-15.15-2.62-24.12,4.78-7.09,14.01-4.72,21.18-6.89,6.21-1.88,12.61-5.79,19.93-4.43,1.23,.23,3.08-2.88,4.67-4.48v-43.16c14.6-6.73,30.25-4.97,45.97-5.23,4.59-15.18,6.69-30.24,7.72-45.6,16.19-5,31.73,4.96,48.37,1.94,8.7-12.97,10.7-29.52,18.88-44.28,14.9,5.05,28.98,9.83,43.63,14.79,9.78-12.57,14.91-28.56,26.76-40.85,13.77,6.93,27.48,13.82,42.52,21.39,6.2-13.59,20.65-20.48,26.52-33.99,6.86-.26,12.02,1.24,15.41,6.63-.92,.37-2.51,.58-2.63,1.13-.45,2,1.02,2.33,2.63,2.21Z" fill="#fecc66"/>
      <path d="M342.78,775.06c8.54-.08,16.15,3.63,24.17,5.77,11.03,2.94,22.33,4.85,33.4,7.63,11.04,2.77,22.8,1.3,33.35,3.9,14.71,3.62,29.1,1.95,43.61,2.6,7.39,.33,14.61,.46,22.02-2.86,6.5-2.91,14.22,.12,21.98-3.03,7.84-3.19,17.61-1.2,26.66-3.68,19.36-5.31,38.46-11.09,57.24-18.27,11.57-4.43,22.47-10.01,33.46-15.46,19.76-9.81,37.94-22.11,55.84-36.94,17.82,2.78,35.77,9.05,53.71,14.82-.22,2.06,.04,3.4-.51,4.14-1.32,1.76-3.01,3.23-4.48,4.74h-44.63c-6.04,12.95-7.66,27.53-11.29,42.75-15.78,3.33-30.99-6.09-47.61-6.25-9.31,11.87-12.64,27.24-22.18,40.04-16.22,1.75-27.78-13.37-43.64-13.24-11.97,10.05-18.21,24.38-27.47,37.15-14.78-6.13-26.01-18.82-42.26-24.03-8.67,8.7-17.27,18.06-26.87,26.24-1.59,1.35-4.82,3.98-6.37,4-10.92-10.95-20.98-21.05-28.28-28.38-14-3.69-18.4,4.97-24.94,8.56-5.98,3.29-10.8,8.62-16.45,12.6-1.53,1.08-4.21,.51-6.6,.71-10.51-9.2-17.62-21.19-26.43-33.5h-15.46c-4.05-9.76-7.6-19.68-9.97-30Z" fill="#fecc66"/>
      <path d="M77,318.4c5.27,8.89,13.91,14.66,20.54,22.28,1.74,2.01,4.03,.65,6.04,1.05,.12,5.88-.39,11.4-3.08,17.04-2.45,5.13,2.06,11.68-2.52,17.33-1.68,2.07-1,6.24-1.01,9.46-.07,23.84-1.07,47.75,.37,71.51,.79,12.93,3.74,26,5.72,38.93,3.82,24.97,17.86,60.09,23.84,76.73,.68,1.88,2.33,3.41,3.94,5.66-4.83,8.84-14.89,8.8-21.07,13.86-4.84-2.6-1.6-6.65-4.68-11.15-11.47-5.92-24.74-12.77-38.2-19.71,.98-17.94,13.35-30.85,17.26-46.82-12.78-9.58-25.2-18.9-37.71-28.29,8.48-14.85,20.7-26.14,27.87-42.24-8.64-8.67-17.41-17.69-26.46-26.42-2.98-2.88-4.82-5.79-3.96-10.38,11.84-6.46,19.39-18.11,29.2-26.34,2.4-7.39-.21-14.14-4.16-18.29-6.4-6.71-6.89-16.91-14.77-22.45-1.1-.77-.38-4.16-.53-6.86,7.25-5.56,14.73-11.1,23.38-14.88Z" fill="#feb906"/>
      <path d="M870.43,634.99c-7.79-7.82-16.75-16.8-25.94-26.03,.3-10-9.32-18.57-5.85-30.57,30.22,0,60.51,0,90.81,0,1.59,0,3.34-.38,5.26,2.82-14.35,20.25-29.11,41.08-44.14,62.29,14.51,18.97,28.96,37.84,43.95,57.43h-79.63c-2.47-5.48,3.4-8.23,4.76-12.38,3.06-9.33,7.02-18.11,8.55-28.18,1.2-7.88,3.54-15.54,2.22-25.4Z" fill="#feb906"/>
      <path d="M0,700.47c14.8-20.85,29.28-41.25,44.06-62.08-13.64-17.83-27.4-35.82-40.77-53.29,2.23-4.64,5.31-3.32,7.78-3.33,22.12-.09,44.24,.15,66.36-.17,7.15-.1,13.59,1.15,19.47,5.09,2.46,6.39-5.58,10.57-3.44,16.87-11.17,4.46-16.85,15.21-25.56,22.09-3.73,13.98,.84,26.75,6.11,38.66,5.17,11.69,6.1,25.52,18.22,34.16-11.39,4.07-61.49,4.86-92.22,1.99Z" fill="#feb906"/>
      <path d="M342.78,775.06c2.36,10.32,5.92,20.24,9.97,30-.9,6.75-8.12,8.94-11.59,9.24-7.41,.66-12.24,5.78-19.7,7.68-7.23-14.3-14.58-28.84-21.75-43.01-16.97,2.05-31.65,10.16-49.11,9.42-1.55-14.78-7.73-28.47-11.25-43.33h-48.11c-4.19-7.79,3.42-17.25-7.07-23.75,14.56-10.32,29.55-11.08,42.56-13.43,15.84,10.8,29.64,21.3,44.49,30,12.79,7.49,25.3,15.42,39.29,21.25,10.81,4.51,23.25,7.21,32.27,15.92Z" fill="#feb906"/>
      <path d="M336.14,691.73c0,18.05,.04,36.1-.04,54.15-.01,2.4,1.19,5.82-3.28,5.85-3.61-.5-6.95-.13-10.78-2.08-23.16-11.75-46.64-22.77-66.49-40.12-2.58-2.25-6.85-2.72-9.02-6.07,9.13-4.5,20.13-2.72,28.68-6.51,9.88-4.39,20.99,3.19,29.4-5.22h31.54Z" fill="#feb906"/>
      <path d="M751.42,758.4v12.05c-3.97,2.45-5.57,.16-7.79-1.28-1.65-1.07-2.27,.94-2.17,2.56h-3.32v-13.33h13.29Z" fill="#feb906"/>
      <path d="M738.13,771.73h3.32v6.67c-7.39,1.13-9.54-5.24-13.08-8.59-1.22-5.59,1.27-8.71,4.92-11.26,4.86,3.2-2.88,11.05,4.84,13.19Z" fill="#fecc66"/>
      <path d="M751.42,758.4c-2.15-7.75-10.13,.14-13.28-5.27,4.9-2.99,10.27-.35,14.65-1.56,3.67,3.11,6.48,5.67,5.27,10.16h-3.32c.08-2.31-1.02-3.42-3.32-3.33Z" fill="#feb906"/>
      <path d="M754.74,761.73h3.32q3.93,6.05-1.83,13.62c-2.74-4.51-.93-9.23-1.49-13.62Z" fill="#fecc66"/>
      <path d="M741.96,778.81h9.35q-5.51,3.1-9.35,0Z" fill="#fecc66"/>
      <path d="M432.48,15.06c-1.61,.12-3.09-.21-2.63-2.21,.12-.55,1.72-.76,2.63-1.13v3.33Z" fill="#feb906"/>
      <path d="M681.65,448.4v21.63c-2.37,2.63-4.65,1.33-6.64,1.71-8.29,0-16.59,0-24.88,0-6.31-5.11-8.35-12.84-8.03-19.8,1.08-23.58-5.85-46.65-3.69-70.21,.08-.9-.72-1.89-1.41-3.55-9.81,22.26-19.41,44.03-29.24,66.35h-24.87c-9.5-21.49-19.3-43.64-29.1-65.8,1.22,23.23-6.4,45.52-5.05,68.41,.23,3.87,.03,7.77,.04,11.65-2.47,3.96-3.25,8.96-7.99,12.45h-31.12v-22.37c2.62-.25,5.24-.51,9.3-.9-2.92-8.67,3.48-15.94,3.28-24.55-.21-8.87,.16-17.76-.11-26.63-.23-7.57,4.97-13.94,3.63-21.97-1.18-7.01-2.11-15.07,.2-21.43,3.29-9.05,2.3-17.98,3.07-27.63h29.8c12.46,26.24,23.63,54.69,36.28,85.24,12.7-29.94,24.55-57.91,36.29-85.59h30.32c-1.2,19.09,5.93,37.48,3.22,56.55-1.11,7.82,4.88,13.98,3.67,21.97-1.15,7.59-2.06,16.11,.27,23.09,2.28,6.83,2.35,13.48,2.9,19.98,3.34,2.45,6.72,.97,9.87,1.41Z" fill="#fefdfc"/>
      <path d="M282.98,383.71c0,4.56-.03,11.78,0,19,.08,17.87,14.09,36.26,30.45,42.53,20.4,7.82,36.48-.78,52.36-11.65,1.35-.92,2.32-2.38,3.57-3.48,.77-.68,1.73-1.15,2.61-1.71,10.23,10.19,12.5,13.62,14,21.12-10,13.71-24.79,19.08-40.41,21.84-4.76,.84-8.02,4.43-13.53,4.06-10.52-.71-28.8-4.31-40.71-10.32-16.51-8.33-30.63-28.63-35.33-45.08-3.57-12.5-2.87-24.74-2.7-37.07,.18-13.57,7.39-25.08,15.6-35.01,14.16-17.13,32.7-26.59,55.48-26.22,6.64,.11,14.75-2.37,19.57,.61,6.32,3.89,13.22,1.73,19.43,5.72,10.52,6.76,11.75,6.42,18.97,18.54v24.63h-22.42c.05-4.72-2.24-9.38-4.99-14.99-3.81-1.97-8.81-4.55-14.91-7.7h-22.74c-17.41,5.68-28.31,15.63-34.31,35.19Z" fill="#fefdfc"/>
      <path d="M495.31,343.19v21.34h-25.22c-2.68-2.8-.37-6.88-1.21-11.11-11.33-7.35-23.2-7.04-35.33-1.04-1.47,3.22-2.96,6.48-4.42,9.69,2.95,8.46,8.42,13.52,17.07,16.6,9.09,3.23,17.23,9.07,26.14,12.95,11.21,4.88,19.31,12.31,23.31,24.04,.49,1.45,1.66,2.67,2.82,4.48,1.58,9.62,.27,19.58-3.72,29.97-10.16,15.36-25.45,24.81-44.63,24.65-20.27-.17-38.02-7.92-50.59-24.95,6.13-4.33,7.07-13.19,14.73-17.37,13.19,7.22,25.29,19.82,43.46,15.31,3.22-1.91,6.8-4.05,10.73-6.39v-15.02c-9.44-12.95-25.11-17.46-39.04-24.26-7.5-3.66-13.28-8.6-19.02-14.13-5.7-5.49-8.38-12.02-7.9-20.04,.36-6.03,.07-12.1,.07-17.48,16.57-34.72,68.71-39.9,92.73-7.22Z" fill="#fefdfc"/>
      <path d="M475.67,98.4c-.24-7,4.66-11.44,7.26-16.61h10.98c7.5,18.08,10.3,37.63,16.55,57.27,5.78-18.32,5.69-37.27,12.8-53.71,4.54-1.07,5.78,1.94,8.43,4.15,3.03,16.1-6.18,31.36-6.21,47.2,2.71,2.89,5.65,1.13,9.14,1.93,1.55-16.11,9.28-30.53,11.32-46.88,2.79,0,5.22-.65,6.99,.16,2.31,1.05,4.1,3.26,5.92,4.81-5.11,19.28-12.37,37.6-9.93,56.93-5.98,3.89-7.98-3.63-12.41-2.41-1.24-3.56-2.22-7.25-5.79-9.25-2.62,.9-1.45,3.53-3,6.45-8.83,.19-17.68-6.2-26.97-3-3.18-5.45-5.74-10.51-5.54-16.7h-18.59c-2.08,4.28-.34,8.75-.94,13.01h-16.83c1.42-16.95,10.65-29.56,16.83-43.33Zm16.42,19.73c1.05-8.19-3.69-13.19-4.9-19.34-1.95,6.43-7.86,11.9-3.58,19.34h8.49Z" fill="#fefdfc"/>
      <path d="M306.24,178.4v11.63c-16.86,17-17.79,17.32-35.91,11.9v20.08c-6.69,10.02-15.37,14.48-25.64,16.31-3.59-3.22-.04-7.47-2.09-10.7,5.56-4.63,13.29-4.82,17.22-11.57,.64-3.56-2.94-5.01-5.32-8.01-11.74,3.72-23.5,12.49-37.1,2.27-5.72-13.06-4.97-16.92,6.36-27.41,1.9-1.76,3.04-4.77,6.4-4.49,3.23,.27,4.16-6.09,9.9-1.06,1.29,1.57-1.46,5.63,.15,9.08-6.39,2.67-11.34,6.26-14.69,13.46,14.39,6.13,25.07-5.28,38.23-5.39-7.16-6.78-2.54-14.36-4.23-20.51,5.43-5.37,10.51-10.39,15.68-15.5h9.51c2.85,2.21,.86,5.26,2.03,8.2-4.29,1.99-8.39,3.9-13.16,6.12v14.56c3.78,6.67,10.96,3.87,17.59,4.4,2.2-4.39,4.47-8.9,6.7-13.36h8.36Z" fill="#fefdfc"/>
      <path d="M406.11,109.12c3.53-2.11,3.03-3.88,3.16-6.07,3.45-1.48,7.07-3.34,10.9-4.54,2.01-.63,4.37-.11,7.66-.11,1.85,2.43,4.18,5.47,7.52,9.84,.91,9.36,6.5,20.46,3.04,32.63-2.21,2.13-5.11,0-7.93,1.28-1.79-8.59-6.85-16.07-4.14-24.23-2.22-2.78-3.89-4.85-4.73-5.9-4.98-.94-6.06,2.24-9.09,4.51,.95,8.18-2.36,17.37,3.5,25.44-2.27,5.69-6.34,7.36-12.51,6.22-.68-9.64-5.92-18.69-3.94-29.37h-13.4c-.4,10.44-1.1,20.94,3.8,30.88-4.44,3.3-8.69,1.85-12.68,1.65-.52-.57-1.21-.97-1.21-1.37-.01-12.23-5.28-23.46-6.5-35.42-.16-1.59,2.22-3.45,4.23-6.35,10.61,4.66,21.17-10.13,32.33,.92Z" fill="#fefdfc"/>
      <path d="M350.05,118.49h7.63c6.07,12.19,13.42,24.04,15.25,38.08-3.43,3.46-7.51,1.06-12.08,2.13-2.57,3.05-5.75,6.8-7.64,9.04-8.14,1.55-13.71,.32-19.96-4.76-3.99-9.31-11.56-19.74-10.32-33,2.18-2.82,5.17-1.07,8.29-1.73,2.72,5.84,5.9,11.64,8.16,17.78,4.1,11.16,6.61,11.92,16.7,4.02,.66-10.68-9.05-19.18-6.02-31.56Z" fill="#fefdfc"/>
      <path d="M293.25,146.41c.64-.6,1.03-1.29,1.43-1.3,3.29-.09,6.58-.05,10.08-.05,2.37-4.14,2.93-10.42,10.61-9.95,.83,4.78,2.32,9.28-1.17,13.68-3.51,4.42,.41,9.65-2.03,14.5,6.82,3.25,6.77,10.63,11.15,14.33-2.53,6.42-6.39,8.45-12.83,7.27-3.77-12-12.58-21.95-17.45-34.01-.53-1.32,.13-3.12,.22-4.46Z" fill="#fefdfc"/>
      <path d="M743.76,680.93c-15.59,3.53-29.59-2.36-44.2-2.91-1.39-1.4-2.95-2.96-4.48-4.49-1.24-12.42,3.39-23.9,5.24-35.82,1.53-9.88,4.63-19.44,4.92-29.64,.16-5.65-7.5-9.01-2.42-15.15,10.94-1.22,16.95-.8,32.57,4.65,4.86,1.7,9.75,.41,15.03,3.91,9.73,6.46,16.27,14.3,21.09,28.99,1.71,20.18-6.03,39.48-27.73,50.46Zm-4.05-12.57c13.04-11.69,21.93-25.23,14.81-43.62-2.25-5.8-7.68-9.79-13.4-13.18-7.62-4.52-15.09-3.12-22.27-2.71-1.83,19.38-6.36,37.04-10.35,54.8,1.56,1.56,3.11,3.12,4.7,4.72h26.53Z" fill="#fefdfc"/>
      <path d="M364.5,565.19c3.56,4.17,9.27,4.24,14.02,7.91q10.41,23.86-5.7,40.16c4.99,8.38,9.89,16.81,15.11,25.04,.51,.81,3.22-.46,4.34,1.45,1.62,5.41-.41,9.31-5.5,12.1-3.9-2.16-8.83-2.64-12.06-6.44-5.33-8.88-7.57-19.69-16.91-26.72h-11.12v30.75c-4.32,4.54-8.77,.86-13.71,3.16,.84-24.22-6.71-46.44-2.98-68.29-2.74-4.53-6.19-5.86-10.12-6.96v-9.22c15.28,2.89,29.51-4.45,44.65-2.96Zm4.6,17.44c-7.88-7.63-17.16-2.85-25.56-4.48v34.12c8.12-9.25,18.75-3.96,25.56-11.68v-17.96Z" fill="#fefdfc"/>
      <path d="M304.58,635.06c3.31,0,6.63,0,10.78,0v19.03c-13.99,3.59-29,2.62-43,7.6-3.8,1.35-6.02-1.55-9.32-5.02,2.75-10.89-4.28-21.67-3.46-33.67,.77-11.22-6.02-21.81-2.99-32.72-2.85-3.06-5.79-1.3-8.46-1.91-4.33-5.07-1.57-8.85,3.43-13.34,16.23,2.89,32.67-6.31,50.21-2.75,5.87,3.3,4.39,9.13,4.41,14.46-3.3,4.08-6.94,7.04-12.49,4.08-.39-1.5-.78-3-1.33-5.13h-21.99c-1.66,6.63-.14,14.14-.89,22.14h28.04c2.19,3.1,6.14,4.26,5.39,8.4-8.79,5.9-18.8,5.8-28.62,5.46-5,9.98,5.35,17.34,2.04,25.84,5.97,2.42,8.28-3.74,13.1-2.66,4.1,.92,8.57,.19,12.08,.19,2.71-3.68-.36-7.69,3.05-10Z" fill="#fefdfc"/>
      <path d="M680.48,585.55c1.26,1.26,2.82,2.83,3.97,3.98v18.8c-10.67,.59-12.62-11.59-21.04-13.26h-14.27c.26,7.61-6.66,14.08-2.78,23.5,8.35-2.4,15.46,4.94,24.21,3.42,2.37,4.4,.37,8.51,1.9,15.43-11-7.62-20.53-5.21-30.91-5.81,.88,8.31,.06,15.49-4.95,24.31,12.14-3.1,20.39,5.56,32.82,.69-.68,.41-1.13-1.35-1.06-2.97,2.4-3.61,5.76-1.53,8.78-1.46,.4,.97,1.17,1.94,1.12,2.87-.26,5.8,2.04,12.38-3.57,15.71-9.39,3.95-16.49-3.23-24.42-2.25-8.27,1.03-15.69-2.22-24.28-4.67-4.95-11.22,2.05-23.14,3.27-35,1.2-11.72,.47-24.31,7.55-35.3-3.61-1.27-5.54-1.94-7.9-2.77v-11.19c.95-1.59,3.04-1.73,4.24-1.09,7.51,4.04,17.02,.5,23.22,3.88,8.34,4.54,16.13,.64,24.1,3.18Z" fill="#fefdfc"/>
      <path d="M206.74,663.03c4.42-6.12,9.69-4.17,15.04-4.84,3.69-4.01,7.8-8.47,11.14-12.09,7.37-2.26,11.71-.63,13.73,5.9-9.24,14.88-24.59,18.81-40.88,22.54-9.13-4.18-21.96-3.43-29.29-14.49-2.6-3.93-7.29-6.46-8.09-11.66-.96-6.18-4.92-11.38-5.1-17.92-.57-20.83,6.29-30.97,31.59-45.14h26.61c3.12,3.56,6.73,7.69,11.3,12.9v9.68h-11.67c-1.77-2.86-2.26-6.87-6.16-9.26h-16.36c-7.61,2.39-12.61,8.94-18.39,14.48,.97,6.61-4.99,11.75-3.67,18.57,.63,3.23,3.03,5.23,3.96,8.42,2.13,7.35,8.26,12.4,13.98,17.69,3.82,.74,8.36,.13,12.26,5.2Z" fill="#fefdfc"/>
      <path d="M542.46,582.31c-1.1,7.25,1.71,14.71-4.49,20.01,2.16,2.3,3.65,3.88,5.63,5.99h23.5c3.07,4.04,.49,8.07,2.09,11.75-10.32,4.95-19.84-.9-30.89-2.38,2.6,13.43-5.43,24.11-2.61,35.8-4.13,2.78-8.06,1.06-11.75,1.57-.58-.85-1.62-1.67-1.68-2.55-1.35-19.06,5.64-37.65,3.28-56.79-.48-3.86,5.03-5.91,3.53-10.36-1.24-5.56-10.53-7.69-5.82-16.14,16.78-4.99,33.68,6.49,51.7,1.51v20.11c-4,1.43-8.1,1.19-12.38,.24-.33-2.96-.62-5.58-.97-8.77h-19.14Z" fill="#fefdfc"/>
      <path d="M464.55,565.57l4.06,4.08v15h-11.62c-1.71-3.05-2.29-6.99-6.04-9.25h-11.33v71.2c-4.39,2.94-8.61,1.74-13.28,1.29v-66.07c-3.81-7.81-9.53-6.88-15.1-6.68-3.58,2.31-6.33,5.39-5.87,9.92h-8.62v-19.49h67.79Z" fill="#fefdfc"/>
      <path d="M496.73,637.43c2.04,3.13,4.77,4.57,8.08,5.15,1.55,2.5,.63,5.18,.46,8.48h-29.22v-11.34c1.08-1.85,2.87-1.18,4.66-1.35,8.58-19.03,3.56-39.18,4.96-57.88-1.73-2.78-3.56-1.85-5.35-2.22-2.37-3.86-1.34-8.06-.77-12.72h24.9c3.76,2.93,6.33,6.7,3.37,12.36-2.48,.28-5.09,.58-7.66,.87-.43,1.02-1.14,1.95-1.17,2.9-.13,3.87-.05,7.74-.05,11.61,0,7.74-.72,15.57,.21,23.2,.9,7.34-6.97,12.73-2.41,20.94Z" fill="#fefdfc"/>
      <path d="M578.83,656.93v-6.71c1.77-3.18,6.97-1.84,9.69-8.04-1.98-17.14,6.46-35.93,2.86-56.11-1.36-.48-3.28-1.15-5.26-1.84-2.78-4.08,1.09-5.68,3.48-8.59h21.24c2.8,2.33,5.87,5.43,4.24,10.84-1.81,3.26-7.02,1.92-9.72,8.08,2.59,16.13-6.66,33.71-2.81,52.84,3.2,3.27,8.39,6.43,4.98,14.35-9.38-.58-19.54,2.26-28.71-4.83Z" fill="#fefdfc"/>
      <path d="M572.02,141.58c9.84,1.07,19.95-1.93,29.56,2.63,.15-1.57,.26-2.64,.36-3.69-4.8-4.15-11.1-4.79-16.6-6.72v-7.11c5.08-5.09,18.77-.59,29.49,9.65,4.27,15.12-9.95,24.88-10.17,38.14-10.26,3.87-14.34-12.17-23.83-5.64-3.34-3.33-6.09-6.06-8.82-8.77v-18.49Zm10.16,10.77c-.76,5.57,2.58,7.4,5.96,9.59,3.4-1.69,6.96-3.46,10.43-5.19v-4.37c-5.53-1.03-11.03-1.03-16.39-.03Z" fill="#fefdfc"/>
      <path d="M678.33,223.4c3.71-3.72,8.29-8.33,11.42-11.47h20.48c2.95,3.6,6.42,7.86,11.11,13.59v14.43c-3.01,2.4-6.38,5.09-10.69,8.52-6.17-5.28-13.34-11.11-18.41-21.43v16.61c5.23,2.33,11.74,4.58,8.85,13.66-1.93,2.4-4.97,.25-7.52,1.42-5.02-5.39-9.9-10.62-15.24-16.34v-18.99Zm22.67-2.48c1.1,8.04,5.04,10.94,9.99,13.38,1.65-7.16-.46-11.51-9.99-13.38Z" fill="#fefdfc"/>
      <path d="M648.43,191.73c-5.81,.79-5.89,6.68-8.72,9.96-4.43,.94-5.12-3.66-7.98-4.57-.32-11.31,7.36-17.67,13.28-23.62,.67-9.11-3.1-12.4-11.26-11.72-7.78,5.87-11.85,15.14-17.37,23.28-4.21,.8-5.13-3.51-8.17-4.79,.53-14.66,14.19-22.05,17.3-34.03,8.82-5.64,11.64,4.13,17.39,6,5.56,1.81,12.38,4.34,13.65,8.43,4.61,9.4-2.06,14.6-1.47,21.06-4.97,.28-2.82,4.14-3.32,6.67-2.3-.08-3.41,1.03-3.32,3.33Z" fill="#fefdfc"/>
      <path d="M655.08,181.73c2.74,0,6.39,1.15,8.06-.19,9.62-7.74,16.59-1.22,23.75,3.9,3.08,2.2,5.6,5.19,8.04,7.51v10.49c-2.05,2.81-5.02,1.19-8.74,1.87-.77-5.93-5.35-9.56-9.55-13.38-.9-.82-3.16-.12-6.43-.12-2.72,3.43-9,5.41-8.4,13.79,2.94,5.73,7.29,10.58,15.26,9.71,2.25,3.29,.87,6.64,1.28,9.77-2.82-.6-3.12,2.72-6.24,3.2-9.54-1.97-15.56-10.42-23.66-18.12v-18.42c2.3,.08,3.41-1.03,3.32-3.33,4.97-.28,2.82-4.14,3.32-6.67Z" fill="#fefdfc"/>
      <path d="M564.8,157.86c-6.79,2.07-9.82-1.09-13.05-5,4.74-12.14,9.6-24.54,14.48-37.03,2.47-1.56,5.15-.63,8.58-.44,2.79,15.6-5.92,28.42-10,42.48Z" fill="#fefdfc"/>
      <path d="M582.32,111.46h-12.26c-2.49-2.58-.79-5.47-1.41-8.2,3.86-2.75,8.08-1.35,12.07-1.16,2.39,2.47,.69,5.36,1.6,9.36Z" fill="#fefdfc"/>
      <path d="M492.09,118.13h-8.49c-4.27-7.44,1.64-12.91,3.58-19.34,1.22,6.16,5.95,11.15,4.9,19.34Z" fill="#feb906"/>
      <path d="M739.71,668.36h-26.53c-1.59-1.59-3.14-3.16-4.7-4.72,4-17.76,8.53-35.41,10.35-54.8,7.19-.41,14.65-1.81,22.27,2.71,5.72,3.4,11.16,7.38,13.4,13.18,7.13,18.39-1.77,31.92-14.81,43.62Z" fill="#feb906"/>
      <path d="M369.11,582.63v17.96c-6.81,7.72-17.44,2.43-25.56,11.68v-34.12c8.4,1.63,17.68-3.15,25.56,4.48Z" fill="#feb906"/>
      <path d="M582.18,152.35c5.37-1,10.86-1,16.39,.03v4.37c-3.46,1.72-7.02,3.49-10.43,5.19-3.39-2.19-6.72-4.02-5.96-9.59Z" fill="#fecc66"/>
      <path d="M701,220.92c9.54,1.87,11.64,6.22,9.99,13.38-4.95-2.44-8.89-5.33-9.99-13.38Z" fill="#feb906"/>
      <path d="M655.08,181.73c-.5,2.53,1.65,6.38-3.32,6.67,.5-2.53-1.65-6.38,3.32-6.67Z" fill="#feb906"/>
      <path d="M651.75,188.4c.08,2.31-1.02,3.42-3.32,3.33-.08-2.31,1.02-3.42,3.32-3.33Z" fill="#feb906"/>
    </g>
  </g>
</svg>