<?xml version="1.0" encoding="UTF-8"?><svg xmlns="http://www.w3.org/2000/svg" viewBox="0 0 1366 770"><defs><style>.i{fill:none;stroke:#000;stroke-miterlimit:10;stroke-width:2px;}</style></defs><g id="a"/><g id="b"/><g id="c"><path class="i" d="M849.81,1.5c-9.76,7.62-24.2,17.89-42.98,27.72-8.15,4.27-38.48,19.64-86.6,29.25-42.78,8.55-41.36,.9-71.38,8.72-19.08,4.97-55.21,14.38-85.16,46.48-9.17,9.83-33.92,39.1-38.72,80.68-4.86,42.11,11.25,92.44,12.47,96.15,2,6.11,4.82,13.81,5.79,25.12,2.15,25.05-6.9,42.79-11.54,55.34-11.54,31.26-11.28,72.85,3.78,104.82,19.11,40.55,58.07,56.72,64.75,59.36,14.46,5.73,32.56,12.92,53.37,8.1,14.41-3.33,22.37-10.63,43.64-12.93,6.11-.66,14.67-1.6,25.2,.33,26.82,4.9,43.25,23.93,48.06,29.66,4.84,5.76,20.1,23.93,20.99,50.11,.98,28.77-15.99,49.19-27.68,63.26-17.25,20.76-38.12,32.78-86.61,52.34-30.08,12.13-70.95,27.04-121.05,40.8"/></g><g id="d"/><g id="e"/><g id="f"/><g id="g"/><g id="h"/></svg>